# xmcd
#
# Track frame offsets:
#	150
#	19446
#	29545
#	54382
#	71964
#	90294
#	111686
#	129423
#	149750
#	165276
#	185071
#	202276
#	221530
#	239335
#	258634
#	276600
#	293233
#
# Disc length: 4164 seconds
#
# Revision: 0
# Processed by: cddbd v1.5PL3 Copyright (c) Steve Scherf et al.
# Submitted via: dBpowerAMP V4.0
#
DISCID=1f104211
DTITLE=陶吉吉 - 黑色柳丁
DYEAR=1900
DGENRE=
TTITLE0=黑色柳丁
TTITLE1=今天晚間新聞
TTITLE2=Dear God
TTITLE3=Angel
TTITLE4=討厭紅樓夢
TTITLE5=蝴蝶
TTITLE6=宮保雞丁
TTITLE7=Melody
TTITLE8=月亮代表誰的心
TTITLE9=二十二
TTITLE10=My Anata
TTITLE11=搖籃曲
TTITLE12=Katrina
TTITLE13=馬戲團
TTITLE14=I'm OK
TTITLE15=心亂飛
TTITLE16=多謝你
EXTD=
EXTT0=
EXTT1=
EXTT2=
EXTT3=
EXTT4=
EXTT5=
EXTT6=
EXTT7=
EXTT8=
EXTT9=
EXTT10=
EXTT11=
EXTT12=
EXTT13=
EXTT14=
EXTT15=
EXTT16=
PLAYORDER=
